PathFileType	4	(X/Y/Z)	/home/alexbeat/data/kuopio-gait-dataset/01/mocap/calib_static_markers.trc
DataRate	CameraRate	NumFrames	NumMarkers	Units	OrigDataRate	OrigDataStartFrame	OrigNumFrames
100.000000	100.000000	4	70	mm	100.000000	184	211
Frame#	Time	Pelvis1			Pelvis2			Pelvis3			Pelvis4			Torso1			Torso2			Torso3			Torso4			RFemur1			RFemur2			RFemur3			RFemur4			LFemur1			LFemur2			LFemur3			LFemur4			RTibia1			RTibia2			RTibia3			RTibia4			LTibia1			LTibia2			LTibia3			LTibia4			LFoot1			LFoot2			LFoot3			RFoot1			RFoot2			RFoot3			*30			*31			*32			*33			*34			*35			*36			*37			*38			Pelvis_RFemur_score			Pelvis_LFemur_score			RFemur_RTibia_score			RFemur_RTibia_sara			LFemur_LTibia_score			LFemur_LTibia_sara			RKnee			LKnee			RTibia_RFoot_score			LTibia_LFoot_score			USERMO0			USERMO1			USERMO2			USERMO3			USERMO4			USERMO5			USERMO6			USERMO7			USERMO8			USERMO9			USERMO10			USERMO11			USERMO12			USERMO13			USERMO14			USERMO15			USERMO16			USERMO17			USERMO18			USERMO19			USERMO20			
		X1	Y1	Z1	X2	Y2	Z2	X3	Y3	Z3	X4	Y4	Z4	X5	Y5	Z5	X6	Y6	Z6	X7	Y7	Z7	X8	Y8	Z8	X9	Y9	Z9	X10	Y10	Z10	X11	Y11	Z11	X12	Y12	Z12	X13	Y13	Z13	X14	Y14	Z14	X15	Y15	Z15	X16	Y16	Z16	X17	Y17	Z17	X18	Y18	Z18	X19	Y19	Z19	X20	Y20	Z20	X21	Y21	Z21	X22	Y22	Z22	X23	Y23	Z23	X24	Y24	Z24	X25	Y25	Z25	X26	Y26	Z26	X27	Y27	Z27	X28	Y28	Z28	X29	Y29	Z29	X30	Y30	Z30	X31	Y31	Z31	X32	Y32	Z32	X33	Y33	Z33	X34	Y34	Z34	X35	Y35	Z35	X36	Y36	Z36	X37	Y37	Z37	X38	Y38	Z38	X39	Y39	Z39	X40	Y40	Z40	X41	Y41	Z41	X42	Y42	Z42	X43	Y43	Z43	X44	Y44	Z44	X45	Y45	Z45	X46	Y46	Z46	X47	Y47	Z47	X48	Y48	Z48	X49	Y49	Z49	X50	Y50	Z50	X51	Y51	Z51	X52	Y52	Z52	X53	Y53	Z53	X54	Y54	Z54	X55	Y55	Z55	X56	Y56	Z56	X57	Y57	Z57	X58	Y58	Z58	X59	Y59	Z59	X60	Y60	Z60	X61	Y61	Z61	X62	Y62	Z62	X63	Y63	Z63	X64	Y64	Z64	X65	Y65	Z65	X66	Y66	Z66	X67	Y67	Z67	X68	Y68	Z68	X69	Y69	Z69	X70	Y70	Z70	

185	1.84	306.6146545410156	-346.4519958496094	1028.010498046875	225.870849609375	-349.0587768554688	1030.776977539062	227.8046417236328	-316.8984069824219	916.8561401367188	297.5229187011719	-315.7855834960938	917.3587036132812	262.6975402832031	-507.0188903808594	1423.747802734375	91.83767700195312	-451.1189270019531	1441.687255859375	436.3839416503906	-445.8501281738281	1465.849487304688	254.8062591552734	-373.0521545410156	1491.561889648438	91.0955810546875	-398.8939208984375	647.4580688476562	101.290901184082	-394.682861328125	545.2734375	89.74341583251953	-423.21337890625	592.3507080078125	84.83647918701172	-460.4419860839844	591.4755249023438	434.3409729003906	-422.5726318359375	668.768310546875	433.5287475585938	-484.0889892578125	632.0419311523438	423.4309387207031	-423.3552856445312	563.0433959960938	434.5331115722656	-442.0320129394531	634.0855102539062	92.97532653808594	-377.6800537109375	363.6476135253906	97.02984619140625	-396.9089050292969	419.1826171875	92.04744720458984	-391.9808349609375	317.5822448730469	109.3827362060547	-339.2223815917969	366.6176147460938	426.3263549804688	-363.9067687988281	372.5394592285156	431.9989624023438	-405.5209655761719	350.3889770507812	423.9458618164062	-413.1307373046875	285.19140625	424.6715698242188	-430.6035461425781	394.5914306640625	335.2291259765625	-320.4114379882812	28.20101737976074	377.7855224609375	-555.3360595703125	23.28188896179199	421.9345703125	-505.9958190917969	23.19157981872559	179.6985931396484	-331.3230285644531	26.58819580078125	118.1759719848633	-562.0202026367188	22.24580001831055	76.24493408203125	-506.0006713867188	20.99492263793945	1498.165283203125	1841.671630859375	615.0828857421875	1584.311157226562	1909.3369140625	704.5135498046875	313.8316345214844	-580.6613159179688	1629.130126953125	1628.119995117188	1821.19677734375	658.291015625	1627.411499023438	1802.648193359375	662.855712890625	nan	nan	nan	nan	nan	nan	nan	nan	nan	nan	nan	nan	139.8179931640625	-454.7193298339844	904.1983642578125	375.3323059082031	-458.9065551757812	892.2609252929688	145.1430816650391	-417.7235412597656	461.2405090332031	243.9018096923828	-432.3481140136719	466.9707946777344	364.3148193359375	-433.600341796875	458.3514099121094	264.4332885742188	-437.5373229980469	461.2120056152344	145.1430053710938	-417.7239990234375	461.2409973144531	364.3150024414062	-433.6000061035156	458.3510131835938	222.9220123291016	-356.578125	8.943592071533203	373.1003112792969	-337.5191650390625	18.66787910461426	-0.8890241980552673	1.482894062995911	-0.7360057234764099	0.4305263757705688	-0.4433670043945312	0.6213036775588989	0.1000000014901161	0.1000000014901161	0.1000000014901161	-0.0003866972983814776	0.02950707636773586	-1.38567841053009	0.3783164322376251	-0.4605811238288879	0.02489149570465088	0.1000000014901161	0.1000000014901161	0.1000000014901161	-1.073495388031006	1.399143934249878	-0.6326848268508911	0.4274578392505646	-0.3941875100135803	0.3360356986522675	0.1000000014901161	0.1000000014901161	0.1000000014901161	-0.07443605363368988	2.510006666183472	-1.899521112442017	0.2533874213695526	-0.3374742865562439	0.9919638633728027	0.1000000014901161	0.1000000014901161	0.1000000014901161	2.464943170547485	-0.2039168477058411	-2.241953134536743	0.09410630166530609	-0.40565225481987	0.5950189232826233	0.1000000014901161	0.1000000014901161	0.1000000014901161	-1.881717443466187	2.46908164024353	-0.02823523245751858	0.124706506729126	-0.4664479792118073	0.02327630668878555	0.1000000014901161	0.1000000014901161	0.1000000014901161	2.465381383895874	-0.3347758650779724	2.32987117767334	0.0940440371632576	-0.3888444304466248	0.3667627274990082	0.1000000014901161	0.1000000014901161	0.1000000014901161	
186	1.85	306.6161499023438	-346.4756164550781	1027.99951171875	225.884033203125	-349.0698547363281	1030.783325195312	227.799072265625	-316.9252014160156	916.8494873046875	297.5217895507812	-315.8044128417969	917.3472290039062	262.6927795410156	-507.074951171875	1423.752563476562	91.84928131103516	-451.1506042480469	1441.677734375	436.3892822265625	-445.9158630371094	1465.851318359375	254.8107147216797	-373.091796875	1491.554809570312	91.09832763671875	-398.8876953125	647.447021484375	101.302116394043	-394.6743774414062	545.2625732421875	89.73558044433594	-423.2086486816406	592.3284912109375	84.82805633544922	-460.4548645019531	591.483154296875	434.3383178710938	-422.5803527832031	668.7546997070312	433.5072631835938	-484.1222229003906	632.024658203125	423.4002990722656	-423.369873046875	563.0358276367188	434.5179138183594	-442.0446472167969	634.0763549804688	92.97720336914062	-377.6784057617188	363.6467590332031	97.04918670654297	-396.9105834960938	419.1563110351562	92.09397888183594	-391.9876708984375	317.5506896972656	109.3882064819336	-339.2235412597656	366.6172180175781	426.3277893066406	-363.91455078125	372.5353088378906	431.9935302734375	-405.5342102050781	350.3667602539062	423.9557495117188	-413.1417236328125	285.1870727539062	424.6943969726562	-430.6410827636719	394.5755004882812	335.2525329589844	-320.3956298828125	28.20332145690918	377.7734985351562	-555.3361206054688	23.26938247680664	421.9368286132812	-505.9765930175781	23.18140983581543	179.7066040039062	-331.3154602050781	26.57519340515137	118.1681747436523	-562.0145874023438	22.24148178100586	76.26979064941406	-505.9813842773438	20.98651885986328	1498.2470703125	1841.708984375	615.1541137695312	1584.31982421875	1909.34326171875	704.52880859375	314.0964660644531	-580.5599365234375	1629.08740234375	1628.126098632812	1821.200561523438	658.2234497070312	nan	nan	nan	-3557.287841796875	-673.4404296875	994.5917358398438	-3552.6015625	-669.4179077148438	971.4883422851562	nan	nan	nan	nan	nan	nan	139.8002166748047	-454.7205200195312	904.205078125	375.3512573242188	-458.925048828125	892.2571411132812	145.1513519287109	-417.7267456054688	461.2350158691406	243.9112396240234	-432.3369445800781	466.9816589355469	364.2975158691406	-433.6318664550781	458.3482971191406	264.4167785644531	-437.5765380859375	461.2256469726562	145.1510009765625	-417.7269897460938	461.2349853515625	364.2980041503906	-433.6319885253906	458.3479919433594	222.98388671875	-356.5297546386719	8.951268196105957	373.089111328125	-337.5015258789062	18.67008018493652	-0.8890550136566162	1.483209490776062	-0.736029326915741	0.4305079877376556	-0.4433839321136475	0.6212919950485229	0.1000000014901161	0.1000000014901161	0.1000000014901161	-0.0003485462802927941	0.02956459671258926	-1.385799169540405	0.3783209621906281	-0.4605694711208344	0.02488470636308193	0.1000000014901161	0.1000000014901161	0.1000000014901161	-1.073594212532043	1.399062275886536	-0.6323053240776062	0.4274610877037048	-0.3942022919654846	0.3360254764556885	0.1000000014901161	0.1000000014901161	0.1000000014901161	-0.07449636608362198	2.51004695892334	-1.899673461914062	0.253391444683075	-0.3374926745891571	0.991959810256958	0.1000000014901161	0.1000000014901161	0.1000000014901161	2.465056180953979	-0.2042180448770523	-2.241902112960815	0.09410812705755234	-0.4056509733200073	0.595008909702301	0.1000000014901161	0.1000000014901161	0.1000000014901161	-1.881661415100098	2.46910834312439	-0.02835651859641075	0.1247148662805557	-0.4664371609687805	0.02326773107051849	0.1000000014901161	0.1000000014901161	0.1000000014901161	2.465469360351562	-0.3342980146408081	2.330464363098145	0.09406815469264984	-0.3888482451438904	0.3667455613613129	0.1000000014901161	0.1000000014901161	0.1000000014901161	
187	1.86	306.628662109375	-346.486328125	1028.00732421875	225.8836975097656	-349.1072387695312	1030.785034179688	227.8071441650391	-316.9282531738281	916.8548583984375	297.5474853515625	-315.8290710449219	917.364990234375	262.6825561523438	-507.0944519042969	1423.748046875	91.85211181640625	-451.1911010742188	1441.681518554688	436.3858337402344	-445.9837951660156	1465.844482421875	254.8139343261719	-373.1264953613281	1491.553466796875	91.101318359375	-398.9004516601562	647.4465942382812	101.2922515869141	-394.6763916015625	545.2702026367188	89.74864959716797	-423.2309875488281	592.345458984375	84.82270812988281	-460.4887390136719	591.4833374023438	434.3585510253906	-422.6193237304688	668.755615234375	433.5195617675781	-484.1516723632812	632.0113525390625	423.4229125976562	-423.3892211914062	563.01806640625	434.5505676269531	-442.107666015625	634.092529296875	92.97698211669922	-377.6702880859375	363.6547546386719	97.05945587158203	-396.8994445800781	419.1478576660156	92.08200073242188	-391.9913940429688	317.563232421875	109.3922882080078	-339.2160949707031	366.6151123046875	426.3343200683594	-363.9353332519531	372.54345703125	431.9977416992188	-405.5304565429688	350.3641052246094	423.9724731445312	-413.1367492675781	285.1918029785156	424.6950073242188	-430.6480102539062	394.5774841308594	335.2526550292969	-320.4069213867188	28.19067001342773	377.7729187011719	-555.3336791992188	23.27561569213867	421.9401245117188	-505.9775085449219	23.18300247192383	179.7125854492188	-331.3343811035156	26.57860946655273	118.1743469238281	-562.0130615234375	22.2410774230957	76.25336456298828	-506.0033264160156	20.99720573425293	1498.119384765625	1841.686279296875	615.1444091796875	1584.326171875	1909.335571289062	704.5087890625	313.9369812011719	-580.7250366210938	1629.101440429688	1628.117431640625	1821.213623046875	658.2527465820312	1526.649169921875	1847.125244140625	600.3702392578125	nan	nan	nan	nan	nan	nan	nan	nan	nan	nan	nan	nan	139.8326721191406	-454.7477111816406	904.1946411132812	375.3704223632812	-458.9647521972656	892.2569580078125	145.1531524658203	-417.72265625	461.2328796386719	243.9140777587891	-432.3322448730469	466.9633178710938	364.3078308105469	-433.6395568847656	458.3415222167969	264.4264526367188	-437.5745544433594	461.2102661132812	145.1529998779297	-417.7229919433594	461.2330017089844	364.3080139160156	-433.6400146484375	458.3420104980469	222.9435272216797	-356.5569152832031	8.933206558227539	373.1150207519531	-337.4812927246094	18.66764831542969	-0.8887864947319031	1.483323454856873	-0.7360271215438843	0.4305299818515778	-0.4434208869934082	0.6212884783744812	0.1000000014901161	0.1000000014901161	0.1000000014901161	-0.0004238130350131541	0.02951744757592678	-1.385784506797791	0.3783219158649445	-0.4605727195739746	0.024883097037673	0.1000000014901161	0.1000000014901161	0.1000000014901161	-1.073404788970947	1.398990511894226	-0.6322759389877319	0.4274702668190002	-0.3942049443721771	0.3360299170017242	0.1000000014901161	0.1000000014901161	0.1000000014901161	-0.07445212453603745	2.510046243667603	-1.899471759796143	0.2534011006355286	-0.3375141322612762	0.991966187953949	0.1000000014901161	0.1000000014901161	0.1000000014901161	2.464913368225098	-0.2040499448776245	-2.242058515548706	0.09410727024078369	-0.4056685566902161	0.5950157046318054	0.1000000014901161	0.1000000014901161	0.1000000014901161	-1.881701111793518	2.469224691390991	-0.02808494493365288	0.1247134357690811	-0.4664502739906311	0.02327229827642441	0.1000000014901161	0.1000000014901161	0.1000000014901161	2.465614795684814	-0.3343028128147125	2.3300940990448	0.0940677747130394	-0.3888422250747681	0.3667502403259277	0.1000000014901161	0.1000000014901161	0.1000000014901161	
188	1.87	306.63916015625	-346.5330810546875	1028.032958984375	225.8926696777344	-349.1450805664062	1030.812255859375	227.8337554931641	-316.9599609375	916.8870239257812	297.5511779785156	-315.8562927246094	917.388427734375	262.6886901855469	-507.144287109375	1423.750122070312	91.87541961669922	-451.2255859375	1441.687866210938	436.3897705078125	-446.026123046875	1465.865356445312	254.8185119628906	-373.17431640625	1491.56396484375	91.097412109375	-398.9327392578125	647.4536743164062	101.2867736816406	-394.7046203613281	545.2848510742188	89.73495483398438	-423.2681579589844	592.3834228515625	84.81443786621094	-460.5094604492188	591.47314453125	434.3738098144531	-422.6581115722656	668.7565307617188	433.5599670410156	-484.2104187011719	632.0651245117188	423.4392700195312	-423.4197998046875	563.0210571289062	434.5419616699219	-442.094482421875	634.0919799804688	92.99324035644531	-377.6700744628906	363.6195373535156	97.03325653076172	-396.9241333007812	419.1793518066406	92.04786682128906	-392.0056457519531	317.5964660644531	109.4064331054688	-339.2352600097656	366.6236877441406	426.3350830078125	-363.928955078125	372.5389099121094	432.0137634277344	-405.5620422363281	350.3857421875	423.9710083007812	-413.1675415039062	285.1939086914062	424.6907958984375	-430.6570129394531	394.5834350585938	335.2434387207031	-320.4083862304688	28.20477104187012	377.7752380371094	-555.3567504882812	23.2616081237793	421.9307556152344	-505.9977416992188	23.17640686035156	179.7198486328125	-331.3900451660156	26.57497787475586	118.1717910766602	-562.0335083007812	22.23981094360352	76.24166870117188	-505.986572265625	21.00093078613281	1498.225830078125	1841.830688476562	614.6722412109375	1584.303466796875	1909.337158203125	704.5374145507812	314.1373596191406	-580.666259765625	1629.039306640625	1628.112548828125	1821.221435546875	658.2654418945312	nan	nan	nan	1627.256713867188	1802.624633789062	662.8517456054688	nan	nan	nan	nan	nan	nan	nan	nan	nan	139.8307342529297	-454.7960205078125	904.205322265625	375.3755493164062	-458.9796752929688	892.2708740234375	145.1333923339844	-417.7549438476562	461.2428588867188	243.8881988525391	-432.4075317382812	466.9691772460938	364.3173828125	-433.6752624511719	458.3513488769531	264.4364624023438	-437.6240234375	461.2161560058594	145.1329956054688	-417.7550048828125	461.2430114746094	364.3169860839844	-433.6749877929688	458.3510131835938	222.9420166015625	-356.6369934082031	8.928312301635742	373.1219787597656	-337.5344848632812	18.66763305664062	-0.8891685009002686	1.483009219169617	-0.7359343767166138	0.4305461645126343	-0.4434506297111511	0.6213027834892273	0.1000000014901161	0.1000000014901161	0.1000000014901161	-0.0003047626523766667	0.02958057075738907	-1.385776042938232	0.3783164918422699	-0.4605876505374908	0.02488092891871929	0.1000000014901161	0.1000000014901161	0.1000000014901161	-1.073523044586182	1.39897358417511	-0.6325396299362183	0.4274743497371674	-0.3942248225212097	0.3360339999198914	0.1000000014901161	0.1000000014901161	0.1000000014901161	-0.07438232004642487	2.510172128677368	-1.899354934692383	0.253413200378418	-0.3375514149665833	0.991992712020874	0.1000000014901161	0.1000000014901161	0.1000000014901161	2.465015411376953	-0.2040350437164307	-2.242187976837158	0.09410076588392258	-0.4056985378265381	0.595029890537262	0.1000000014901161	0.1000000014901161	0.1000000014901161	-1.881550788879395	2.469425916671753	-0.02796798944473267	0.1247111111879349	-0.4664700627326965	0.02327190712094307	0.1000000014901161	0.1000000014901161	0.1000000014901161	2.465086221694946	-0.3351424932479858	2.329703807830811	0.09405078738927841	-0.3888537883758545	0.366760641336441	0.1000000014901161	0.1000000014901161	0.1000000014901161	
